<svg fill="none" height="179" viewBox="0 0 376 179" width="376" xmlns="http://www.w3.org/2000/svg"><g fill="#3a5f56"><path d="m91.9948 34.6927c0 .2136-.0365.4167-.1198.6094-.0781.1979-.1979.3698-.3438.5208-.151.1459-.3229.2657-.5156.3438-.1979.0833-.401.1198-.6146.1198-.2083 0-.4114-.0365-.6093-.1198-.1928-.0781-.3646-.1979-.5157-.3438-.151-.151-.2656-.3229-.3437-.5208-.0834-.1927-.125-.3958-.125-.6094 0-.2083.0416-.4114.125-.6094.0781-.1927.1927-.3645.3437-.5156.1511-.151.3229-.2656.5157-.3437.1979-.0834.401-.125.6093-.125.2136 0 .4167.0416.6146.125.1927.0781.3646.1927.5156.3437.1459.1511.2657.3229.3438.5156.0833.198.1198.4011.1198.6094z"/><path d="m87.2135 37.8385c0 .3125-.0573.6094-.1771.8959-.1145.2812-.2864.5364-.5052.7552-.2187.2187-.4687.3854-.7552.5052-.2812.1146-.5833.1771-.8906.1771s-.6042-.0625-.8906-.1771c-.2865-.1198-.5365-.2865-.7552-.5052-.2188-.2188-.3854-.474-.5052-.7552-.1198-.2865-.1771-.5834-.1771-.8959 0-.3073.0573-.6041.1771-.8906.1198-.2812.2864-.5365.5052-.7552.2187-.2188.4687-.3854.7552-.5052.2864-.1146.5833-.1771.8906-.1771s.6094.0625.8906.1771c.2865.1198.5365.2864.7552.5052.2188.2187.3907.474.5052.7552.1198.2865.1771.5833.1771.8906z"/><path d="m172.052 9.40105c-2.042-4.53646-5.76-9.239587-11.198-9.3177121-24.64-.0416667-49.281 0-73.9269 0-4.3698-.08333338-7.9688 3.1041621-10.0938 6.6614621-4.901 8.0052-10.0885 15.8542-15.1562 23.7396-1.2292 1.7969-2.6198 4.0885-5.0677 4.0469-11.0365.2447-22.0677-.0417-33.1042.0833-6.6614.0781-12.9114 3.6771-16.95832 8.8229-3.71875 4.8229-5.35417 10.9531-5.02604 17 0 15.776 0 31.5521-.04167 47.2815.125 11.812-.16146 23.62.08333 35.39 1.26563 6.907 5.18751 13.61 11.7292 16.672-2.6979-3.432-4.37503-7.64-4.49482-12.01-.24479-10.953 0-21.906-.125-32.818 0-2.656.08333-5.312 0-8.01v-4.782c.04167-13.2808-.04167-26.562-.04167-39.885.04167-5.7187 1.55729-11.7656 5.64059-15.9739 3.349-3.5573 8.3386-4.9896 13.1198-5.0677 7.4792-.125 14.9948 0 22.474-.0417 5.4375-.5729 12.8333 2.0833 16.3489-3.5156 5.8021-9.1146 11.3178-18.3906 17.1198-27.5 1.5521-2.57814 4.4115-4.17189 7.4375-4.00522 23.3752 0 46.7082-.04167 70.0832.04167 3.557-.125 6.375 2.48958 8.214 5.27085 3.718 5.5156 6.948 11.3594 10.708 16.875l.938 1.5937 2.494 4.1302 1.636 2.7344.531.9011c-4.047-9.6042-8.87-18.8803-13.323-28.31775z"/><path d="m50.3125 31.2604h-18.0625c-2.125 0-3.8385-1.7135-3.8385-3.8385s1.7135-3.8438 3.8385-3.8438h18.0625c2.125 0 3.8437 1.7188 3.8437 3.8438s-1.7187 3.8385-3.8437 3.8385z"/><path clip-rule="evenodd" d="m129 44.9797c-14.351-4.126-30.4165-2.2741-43.2552 5.4474-11.6042 6.8229-20.5156 18.0625-24.4792 30.9375-2.8177 9.1927-3.2292 19.1614-1.0208 28.5624 2.1666 9.401 6.9062 18.266 13.5677 25.297 9.2344 9.891 22.2292 16.016 35.7135 17.042.635.004 1.272.012 1.912.02 5.127.065 10.369.132 15.13-1.901-1.475 0-2.943.068-4.409.135-1.946.089-3.889.179-5.847.11-11.442-.531-22.7235-4.864-31.4266-12.385-11.2344-9.599-18.1042-24.193-18.0208-38.9846.0416-3.2291.8177-7.0677 4.0052-8.6614 3.4323-1.8386 6.6614-4.25 8.2552-7.9271 1.308-3.3459.948-6.9083.5972-10.3796-.0222-.2193-.0443-.4383-.066-.6569-.5729-4.2083 1.5938-8.2552 4.6563-10.9896 9.6875-8.6666 22.7655-13.3645 35.7605-12.9583 3.002.1079 5.992.4872 8.927 1.122z" fill-rule="evenodd"/><path clip-rule="evenodd" d="m173.611 150h-14.787c-3.29 2.861-6.852 5.407-10.636 7.578-19.209 11.276-44.011 12.052-63.9172 2.083-10.6198-5.067-19.4479-13.281-26.4375-22.64 3.3907 6.13 7.8854 11.646 12.9532 16.469 18.4739 17.573 46.3435 23.989 70.6565 16.552 12.259-3.717 23.373-10.775 32.168-20.042zm-31.84-118.8594c9.339 2.7765 18.008 7.5859 25.437 13.8594h-10.537c-3.728-2.9477-7.761-5.514-11.999-7.651-15.979-8.1302-35.021-9.2344-52.021-3.7969 15.365-6.6198 33.141-7.276 49.12-2.4115z" fill-rule="evenodd"/><path d="m149.304 49.8226v28.5417c0 3.8906-1.073 6.8542-3.209 8.8958-2.14 2.0417-5.203 3.0625-9.187 3.0625-1.058 0-2.104-.1354-3.146-.3958-1.031-.25-1.896-.5625-2.604-.9375-.698-.375-1.328-.75-1.896-1.125-.552-.3854-.964-.7135-1.229-.9792l-.438-.375 2.896-7.5625c1.901 1.7917 3.625 2.6875 5.167 2.6875 1.375 0 2.479-.4583 3.312-1.375.844-.9166 1.271-2.3177 1.271-4.2083v-26.2292z"/><path d="m156.268 86.531c-2.307-2.5261-3.458-5.6146-3.458-9.2709 0-3.6666 1.151-6.7708 3.458-9.3125 2.318-2.5416 5.261-3.8125 8.834-3.8125 3.276 0 5.979 1.0313 8.104 3.0834v-2.3542h8.541v24.7292h-8.437v-2.7917h-.104c-2.125 2.349-4.828 3.5208-8.104 3.5208-3.573 0-6.516-1.2604-8.834-3.7916zm7.271-13.4584c-1.115 1.0834-1.667 2.4792-1.667 4.1875 0 1.6979.526 3.0834 1.584 4.1667 1.067 1.0729 2.468 1.6042 4.208 1.6042 1.667 0 3.031-.5417 4.104-1.625 1.084-1.0938 1.625-2.4792 1.625-4.1459 0-1.7083-.557-3.1041-1.666-4.1875-1.099-1.0937-2.454-1.6458-4.063-1.6458-1.641 0-3.016.5521-4.125 1.6458z"/><path d="m198.279 64.1351c1.417 0 2.812.1615 4.187.4792 1.386.3229 2.417.6458 3.084.9792l1.021.4791-2.792 5.5834c-1.932-1.0261-3.766-1.5417-5.5-1.5417-.974 0-1.662.1042-2.063.3125-.39.2083-.583.6042-.583 1.1875 0 .125.01.2604.042.3958.026.125.088.2448.187.3542.094.1146.188.2083.271.2917.083.0729.214.1562.396.25.193.0989.344.177.458.2291.125.0417.313.1146.563.2084.26.0989.458.177.583.2291.125.0417.339.1146.646.2084.302.0989.542.1614.708.1875.985.2916 1.844.6198 2.584.9791.75.349 1.531.8282 2.354 1.4375.817.6146 1.448 1.3854 1.896 2.3125.458.9323.687 1.9948.687 3.1875 0 5.625-3.911 8.4375-11.729 8.4375-1.766 0-3.448-.2708-5.042-.8125-1.583-.5521-2.729-1.1041-3.437-1.6458l-1.063-.875 3.479-5.8333c.25.2239.584.4895 1 .7916.427.3073 1.188.7292 2.271 1.2709 1.094.5312 2.047.7916 2.854.7916 1.761 0 2.646-.5937 2.646-1.7916 0-.5417-.229-.9636-.687-1.2709-.448-.3021-1.209-.651-2.292-1.0416-1.073-.3855-1.911-.7396-2.521-1.0625-1.541-.8021-2.765-1.7136-3.666-2.7292-.891-1.0104-1.334-2.3542-1.334-4.0208 0-2.5.969-4.448 2.917-5.8542 1.943-1.401 4.568-2.1042 7.875-2.1042z"/><path d="m213.581 86.656c-2.75-2.4427-4.125-5.573-4.125-9.3959 0-3.8333 1.428-6.9791 4.292-9.4375 2.86-2.4583 6.396-3.6875 10.604-3.6875 4.151 0 7.646 1.2448 10.479 3.7292 2.844 2.474 4.271 5.6042 4.271 9.3958 0 3.7917-1.39 6.9167-4.166 9.375-2.782 2.4584-6.308 3.6875-10.584 3.6875-4.432 0-8.021-1.2187-10.771-3.6666zm6.605-13.5834c-1.115 1.0834-1.667 2.4792-1.667 4.1875 0 1.6979.526 3.0834 1.583 4.1667 1.068 1.0729 2.469 1.6042 4.209 1.6042 1.666 0 3.031-.5417 4.104-1.625 1.083-1.0938 1.625-2.4792 1.625-4.1459 0-1.7083-.557-3.1041-1.667-4.1875-1.099-1.0937-2.453-1.6458-4.062-1.6458-1.641 0-3.016.5521-4.125 1.6458z"/><path d="m243.115 89.5935v-24.7292h8.521v2.6042h.104c2.219-2.2188 4.583-3.3334 7.083-3.3334 1.219 0 2.438.1615 3.646.4792 1.208.3229 2.359.8229 3.458 1.5 1.11.6823 2.011 1.6406 2.709 2.875.692 1.2396 1.041 2.6771 1.041 4.3125v16.2917h-8.541v-13.9792c0-1.2917-.412-2.4167-1.229-3.375-.823-.9583-1.891-1.4375-3.209-1.4375-1.281 0-2.448.5-3.5 1.5-1.041.9896-1.562 2.0937-1.562 3.3125v13.9792z"/><path d="m180.027 165.307v-9.458h3.687c.625 0 1.151.141 1.584.417.442.281.776.656 1 1.125.234.474.354 1 .354 1.583 0 .599-.12 1.135-.354 1.604-.224.474-.558.849-1 1.125-.433.266-.959.396-1.584.396h-2.645v3.208zm1.042-4.146h2.645c.443 0 .797-.093 1.063-.291.276-.209.479-.479.604-.813.135-.333.208-.692.208-1.083 0-.375-.073-.729-.208-1.063-.125-.333-.333-.604-.625-.812-.281-.208-.625-.313-1.042-.313h-2.645z"/><path d="m195.756 165.307v-9.458h1.083v4.25h4.896v-4.25h1.063v9.458h-1.063v-4.271h-4.896v4.271z"/><path d="m215.961 165.495c-.808 0-1.511-.209-2.104-.625-.599-.427-1.063-1.011-1.396-1.75-.334-.735-.5-1.584-.5-2.542s.166-1.802.5-2.542c.333-.75.797-1.333 1.396-1.75.593-.427 1.296-.645 2.104-.645.791 0 1.484.218 2.083.645.609.417 1.073 1 1.396 1.75.333.74.5 1.584.5 2.542s-.167 1.807-.5 2.542c-.323.739-.787 1.323-1.396 1.75-.599.416-1.292.625-2.083.625zm0-.938c.567 0 1.067-.166 1.5-.5.442-.343.791-.817 1.041-1.416.25-.594.375-1.282.375-2.063 0-.792-.125-1.484-.375-2.083-.25-.594-.599-1.063-1.041-1.396-.433-.344-.933-.521-1.5-.521-.573 0-1.078.177-1.521.521-.448.333-.792.802-1.042 1.396-.239.599-.354 1.291-.354 2.083 0 .781.115 1.469.354 2.063.25.599.594 1.073 1.042 1.416.443.334.948.5 1.521.5z"/><path d="m231.541 165.307v-8.562h-3.125v-.896h7.354v.896h-3.146v8.562z"/><path d="m248.067 165.495c-.807 0-1.51-.209-2.104-.625-.599-.427-1.063-1.011-1.396-1.75-.333-.735-.5-1.584-.5-2.542s.167-1.802.5-2.542c.333-.75.797-1.333 1.396-1.75.594-.427 1.297-.645 2.104-.645.792 0 1.484.218 2.083.645.61.417 1.073 1 1.396 1.75.334.74.5 1.584.5 2.542s-.166 1.807-.5 2.542c-.323.739-.786 1.323-1.396 1.75-.599.416-1.291.625-2.083.625zm0-.938c.568 0 1.068-.166 1.5-.5.443-.343.792-.817 1.042-1.416.25-.594.375-1.282.375-2.063 0-.792-.125-1.484-.375-2.083-.25-.594-.599-1.063-1.042-1.396-.432-.344-.932-.521-1.5-.521-.573 0-1.078.177-1.521.521-.448.333-.791.802-1.041 1.396-.24.599-.355 1.291-.355 2.083 0 .781.115 1.469.355 2.063.25.599.593 1.073 1.041 1.416.443.334.948.5 1.521.5z"/><path d="m265.106 165.516c-.849 0-1.594-.209-2.23-.625-.625-.427-1.114-1.011-1.458-1.75-.349-.75-.521-1.594-.521-2.542 0-.625.084-1.229.25-1.813.167-.593.422-1.13.771-1.604.344-.468.781-.843 1.313-1.125.526-.276 1.151-.416 1.875-.416.901 0 1.671.229 2.312.687.635.448 1.083 1.073 1.333 1.875l-.937.313c-.224-.594-.557-1.063-1-1.396-.448-.344-1.016-.521-1.708-.521-.573 0-1.058.12-1.459.354-.39.24-.708.557-.958.958-.25.391-.432.823-.542 1.292-.114.458-.166.927-.166 1.396 0 .474.052.948.166 1.417.11.458.281.885.521 1.27.25.391.573.704.979.938.401.224.886.333 1.459.333.635 0 1.213-.146 1.729-.437.51-.292.875-.719 1.083-1.292v-1.625h-3.021v-.917h3.938v2.73c-.209.614-.511 1.104-.896 1.479-.375.364-.807.625-1.292.791-.489.152-1 .23-1.541.23z"/><path d="m278.236 165.307v-9.458h3.896c.651 0 1.193.141 1.625.417.427.265.755.619.979 1.062.219.432.334.906.334 1.417 0 .474-.105.932-.313 1.375-.198.432-.5.791-.917 1.083-.406.281-.916.432-1.541.458l2.791 3.584v.062h-1.27l-2.834-3.646h-1.687v3.646zm1.063-4.583h2.958c.401-.01.729-.115.979-.313.25-.192.438-.437.563-.729.125-.302.187-.614.187-.937 0-.334-.073-.646-.208-.938-.125-.302-.328-.552-.604-.75-.266-.192-.615-.291-1.042-.291h-2.833z"/><path d="m293.227 165.307 3.875-9.541h1.02l3.875 9.541h-1.166l-.979-2.479h-4.48l-.979 2.479zm2.541-3.416h3.688l-1.063-2.688-.791-2.271-.771 2.271z"/><path d="m310.586 165.307v-9.458h3.687c.625 0 1.151.141 1.583.417.443.281.777.656 1 1.125.235.474.355 1 .355 1.583 0 .599-.12 1.135-.355 1.604-.223.474-.557.849-1 1.125-.432.266-.958.396-1.583.396h-2.646v3.208zm1.041-4.146h2.646c.443 0 .797-.093 1.063-.291.276-.209.479-.479.604-.813.135-.333.208-.692.208-1.083 0-.375-.073-.729-.208-1.063-.125-.333-.334-.604-.625-.812-.281-.208-.625-.313-1.042-.313h-2.646z"/><path d="m326.315 165.307v-9.458h1.083v4.25h4.896v-4.25h1.062v9.458h-1.062v-4.271h-4.896v4.271z"/><path d="m345.52 165.307v-3.75l-3.5-5.625v-.083h1.27l1.73 2.896 1.02 1.854 1.042-1.854 1.75-2.896h1.25v.083l-3.5 5.625v3.75z"/><path d="m180.297 122.322v16.396h-9.312v-40.8751h9.312v16.3121h13.167v-16.3121h9.313v40.8751h-9.313v-16.396z"/><path d="m211.115 135.697c-2.823-2.51-4.229-5.734-4.229-9.667 0-3.927 1.463-7.156 4.396-9.687 2.942-2.526 6.573-3.792 10.896-3.792 4.26 0 7.854 1.281 10.77 3.834 2.928 2.541 4.396 5.765 4.396 9.666 0 3.891-1.432 7.099-4.291 9.625-2.849 2.531-6.474 3.792-10.875 3.792-4.558 0-8.245-1.255-11.063-3.771zm6.792-13.979c-1.141 1.125-1.709 2.562-1.709 4.312s.542 3.183 1.625 4.292c1.094 1.115 2.532 1.667 4.313 1.667 1.719 0 3.13-.563 4.229-1.688 1.109-1.125 1.667-2.547 1.667-4.271 0-1.75-.573-3.187-1.709-4.312-1.14-1.125-2.536-1.688-4.187-1.688-1.682 0-3.094.563-4.229 1.688z"/><path d="m241.452 138.718v-42.6043h8.771v42.6043z"/><path d="m257.639 113.301v-9.458h8.771v9.458h5.354v6.688h-5.354v8.083c0 2.349.656 3.521 1.979 3.521.333 0 .677-.063 1.041-.188.36-.135.636-.276.834-.416l.312-.188 2.167 7.084c-1.875 1.052-4.021 1.583-6.438 1.583-1.656 0-3.078-.292-4.27-.875-1.183-.583-2.079-1.359-2.688-2.333-.614-.969-1.052-1.99-1.312-3.063-.266-1.068-.396-2.213-.396-3.437v-9.771h-3.667v-6.688z"/></g></svg>