<svg width="376" height="179" viewBox="0 0 376 179" fill="none" xmlns="http://www.w3.org/2000/svg">
<path d="M91.9948 34.6927C91.9948 34.9063 91.9583 35.1094 91.875 35.3021C91.7969 35.5 91.6771 35.6719 91.5312 35.8229C91.3802 35.9688 91.2083 36.0886 91.0156 36.1667C90.8177 36.25 90.6146 36.2865 90.401 36.2865C90.1927 36.2865 89.9896 36.25 89.7917 36.1667C89.5989 36.0886 89.4271 35.9688 89.276 35.8229C89.125 35.6719 89.0104 35.5 88.9323 35.3021C88.8489 35.1094 88.8073 34.9063 88.8073 34.6927C88.8073 34.4844 88.8489 34.2813 88.9323 34.0833C89.0104 33.8906 89.125 33.7188 89.276 33.5677C89.4271 33.4167 89.5989 33.3021 89.7917 33.224C89.9896 33.1406 90.1927 33.099 90.401 33.099C90.6146 33.099 90.8177 33.1406 91.0156 33.224C91.2083 33.3021 91.3802 33.4167 91.5312 33.5677C91.6771 33.7188 91.7969 33.8906 91.875 34.0833C91.9583 34.2813 91.9948 34.4844 91.9948 34.6927Z" fill="#3A5F56"/>
<path d="M87.2135 37.8385C87.2135 38.151 87.1562 38.4479 87.0364 38.7344C86.9219 39.0156 86.75 39.2708 86.5312 39.4896C86.3125 39.7083 86.0625 39.875 85.776 39.9948C85.4948 40.1094 85.1927 40.1719 84.8854 40.1719C84.5781 40.1719 84.2812 40.1094 83.9948 39.9948C83.7083 39.875 83.4583 39.7083 83.2396 39.4896C83.0208 39.2708 82.8542 39.0156 82.7344 38.7344C82.6146 38.4479 82.5573 38.151 82.5573 37.8385C82.5573 37.5312 82.6146 37.2344 82.7344 36.9479C82.8542 36.6667 83.0208 36.4114 83.2396 36.1927C83.4583 35.9739 83.7083 35.8073 83.9948 35.6875C84.2812 35.5729 84.5781 35.5104 84.8854 35.5104C85.1927 35.5104 85.4948 35.5729 85.776 35.6875C86.0625 35.8073 86.3125 35.9739 86.5312 36.1927C86.75 36.4114 86.9219 36.6667 87.0364 36.9479C87.1562 37.2344 87.2135 37.5312 87.2135 37.8385Z" fill="#3A5F56"/>
<path d="M172.052 9.40105C170.01 4.86459 166.292 0.161463 160.854 0.0833379C136.214 0.0416712 111.573 0.0833379 86.9271 0.0833379C82.5573 4.51933e-06 78.9583 3.1875 76.8333 6.7448C71.9323 14.75 66.7448 22.599 61.6771 30.4844C60.4479 32.2813 59.0573 34.5729 56.6094 34.5313C45.5729 34.776 34.5417 34.4896 23.5052 34.6146C16.8438 34.6927 10.5938 38.2917 6.54688 43.4375C2.82813 48.2604 1.19271 54.3906 1.52084 60.4375C1.52084 76.2135 1.52084 91.9896 1.47917 107.719C1.60417 119.531 1.31771 131.339 1.5625 143.109C2.82813 150.016 6.75001 156.719 13.2917 159.781C10.5938 156.349 8.91667 152.141 8.79688 147.771C8.55209 136.818 8.79688 125.865 8.67188 114.953C8.67188 112.297 8.75521 109.641 8.67188 106.943V102.161C8.71355 88.8802 8.63021 75.599 8.63021 62.276C8.67188 56.5573 10.1875 50.5104 14.2708 46.3021C17.6198 42.7448 22.6094 41.3125 27.3906 41.2344C34.8698 41.1094 42.3854 41.2344 49.8646 41.1927C55.3021 40.6198 62.6979 43.276 66.2135 37.6771C72.0156 28.5625 77.5313 19.2865 83.3333 10.1771C84.8854 7.59896 87.7448 6.00521 90.7708 6.17188C114.146 6.17188 137.479 6.13021 160.854 6.21355C164.411 6.08855 167.229 8.70313 169.068 11.4844C172.786 17 176.016 22.8438 179.776 28.3594L180.714 29.9531L183.208 34.0833L184.844 36.8177L185.375 37.7188C181.328 28.1146 176.505 18.8385 172.052 9.40105Z" fill="#3A5F56"/>
<path d="M50.3125 31.2604H32.25C30.125 31.2604 28.4115 29.5469 28.4115 27.4219C28.4115 25.2969 30.125 23.5781 32.25 23.5781H50.3125C52.4375 23.5781 54.1562 25.2969 54.1562 27.4219C54.1562 29.5469 52.4375 31.2604 50.3125 31.2604Z" fill="#3A5F56"/>
<path fill-rule="evenodd" clip-rule="evenodd" d="M129 44.9797C114.649 40.8537 98.5835 42.7056 85.7448 50.4271C74.1406 57.25 65.2292 68.4896 61.2656 81.3646C58.4479 90.5573 58.0364 100.526 60.2448 109.927C62.4114 119.328 67.151 128.193 73.8125 135.224C83.0469 145.115 96.0417 151.24 109.526 152.266C110.161 152.27 110.798 152.278 111.438 152.286C116.565 152.351 121.807 152.418 126.568 150.385C125.093 150.385 123.625 150.453 122.159 150.52C120.213 150.609 118.27 150.699 116.312 150.63C104.87 150.099 93.5885 145.766 84.8854 138.245C73.651 128.646 66.7812 114.052 66.8646 99.2604C66.9062 96.0313 67.6823 92.1927 70.8698 90.599C74.3021 88.7604 77.5312 86.349 79.125 82.6719C80.433 79.326 80.073 75.7636 79.7222 72.2923C79.7 72.073 79.6779 71.854 79.6562 71.6354C79.0833 67.4271 81.25 63.3802 84.3125 60.6458C94 51.9792 107.078 47.2813 120.073 47.6875C123.075 47.7954 126.065 48.1747 129 48.8095V44.9797Z" fill="#3A5F56"/>
<path fill-rule="evenodd" clip-rule="evenodd" d="M173.611 150H158.824C155.534 152.861 151.972 155.407 148.188 157.578C128.979 168.854 104.177 169.63 84.2708 159.661C73.651 154.594 64.8229 146.38 57.8333 137.021C61.224 143.151 65.7187 148.667 70.7865 153.49C89.2604 171.063 117.13 177.479 141.443 170.042C153.702 166.325 164.816 159.267 173.611 150ZM141.771 31.1406C151.11 33.9171 159.779 38.7265 167.208 45H156.671C152.943 42.0523 148.91 39.486 144.672 37.349C128.693 29.2188 109.651 28.1146 92.651 33.5521C108.016 26.9323 125.792 26.2761 141.771 31.1406Z" fill="#3A5F56"/>
<path d="M149.304 49.8226V78.3643C149.304 82.2549 148.231 85.2185 146.095 87.2601C143.955 89.3018 140.892 90.3226 136.908 90.3226C135.85 90.3226 134.804 90.1872 133.762 89.9268C132.731 89.6768 131.866 89.3643 131.158 88.9893C130.46 88.6143 129.83 88.2393 129.262 87.8643C128.71 87.4789 128.298 87.1508 128.033 86.8851L127.595 86.5101L130.491 78.9476C132.392 80.7393 134.116 81.6351 135.658 81.6351C137.033 81.6351 138.137 81.1768 138.97 80.2601C139.814 79.3435 140.241 77.9424 140.241 76.0518V49.8226H149.304Z" fill="#3A5F56"/>
<path d="M156.268 86.531C153.961 84.0049 152.81 80.9164 152.81 77.2601C152.81 73.5935 153.961 70.4893 156.268 67.9476C158.586 65.406 161.529 64.1351 165.102 64.1351C168.378 64.1351 171.081 65.1664 173.206 67.2185V64.8643H181.747V89.5935H173.31V86.8018H173.206C171.081 89.1508 168.378 90.3226 165.102 90.3226C161.529 90.3226 158.586 89.0622 156.268 86.531ZM163.539 73.0726C162.424 74.156 161.872 75.5518 161.872 77.2601C161.872 78.958 162.398 80.3435 163.456 81.4268C164.523 82.4997 165.924 83.031 167.664 83.031C169.331 83.031 170.695 82.4893 171.768 81.406C172.852 80.3122 173.393 78.9268 173.393 77.2601C173.393 75.5518 172.836 74.156 171.727 73.0726C170.628 71.9789 169.273 71.4268 167.664 71.4268C166.023 71.4268 164.648 71.9789 163.539 73.0726Z" fill="#3A5F56"/>
<path d="M198.279 64.1351C199.696 64.1351 201.091 64.2966 202.466 64.6143C203.852 64.9372 204.883 65.2601 205.55 65.5935L206.571 66.0726L203.779 71.656C201.847 70.6299 200.013 70.1143 198.279 70.1143C197.305 70.1143 196.617 70.2185 196.216 70.4268C195.826 70.6351 195.633 71.031 195.633 71.6143C195.633 71.7393 195.643 71.8747 195.675 72.0101C195.701 72.1351 195.763 72.2549 195.862 72.3643C195.956 72.4789 196.05 72.5726 196.133 72.656C196.216 72.7289 196.347 72.8122 196.529 72.906C196.722 73.0049 196.873 73.083 196.987 73.1351C197.112 73.1768 197.3 73.2497 197.55 73.3435C197.81 73.4424 198.008 73.5205 198.133 73.5726C198.258 73.6143 198.472 73.6872 198.779 73.781C199.081 73.8799 199.321 73.9424 199.487 73.9685C200.472 74.2601 201.331 74.5883 202.071 74.9476C202.821 75.2966 203.602 75.7758 204.425 76.3851C205.242 76.9997 205.873 77.7705 206.321 78.6976C206.779 79.6299 207.008 80.6924 207.008 81.8851C207.008 87.5101 203.097 90.3226 195.279 90.3226C193.513 90.3226 191.831 90.0518 190.237 89.5101C188.654 88.958 187.508 88.406 186.8 87.8643L185.737 86.9893L189.216 81.156C189.466 81.3799 189.8 81.6455 190.216 81.9476C190.643 82.2549 191.404 82.6768 192.487 83.2185C193.581 83.7497 194.534 84.0101 195.341 84.0101C197.102 84.0101 197.987 83.4164 197.987 82.2185C197.987 81.6768 197.758 81.2549 197.3 80.9476C196.852 80.6455 196.091 80.2966 195.008 79.906C193.935 79.5205 193.097 79.1664 192.487 78.8435C190.946 78.0414 189.722 77.1299 188.821 76.1143C187.93 75.1039 187.487 73.7601 187.487 72.0935C187.487 69.5935 188.456 67.6455 190.404 66.2393C192.347 64.8383 194.972 64.1351 198.279 64.1351Z" fill="#3A5F56"/>
<path d="M213.581 86.656C210.831 84.2133 209.456 81.083 209.456 77.2601C209.456 73.4268 210.884 70.281 213.748 67.8226C216.608 65.3643 220.144 64.1351 224.352 64.1351C228.503 64.1351 231.998 65.3799 234.831 67.8643C237.675 70.3383 239.102 73.4685 239.102 77.2601C239.102 81.0518 237.712 84.1768 234.936 86.6351C232.154 89.0935 228.628 90.3226 224.352 90.3226C219.92 90.3226 216.331 89.1039 213.581 86.656ZM220.186 73.0726C219.071 74.156 218.519 75.5518 218.519 77.2601C218.519 78.958 219.045 80.3435 220.102 81.4268C221.17 82.4997 222.571 83.031 224.311 83.031C225.977 83.031 227.342 82.4893 228.415 81.406C229.498 80.3122 230.04 78.9268 230.04 77.2601C230.04 75.5518 229.483 74.156 228.373 73.0726C227.274 71.9789 225.92 71.4268 224.311 71.4268C222.67 71.4268 221.295 71.9789 220.186 73.0726Z" fill="#3A5F56"/>
<path d="M243.115 89.5935V64.8643H251.636V67.4685H251.74C253.959 65.2497 256.323 64.1351 258.823 64.1351C260.042 64.1351 261.261 64.2966 262.469 64.6143C263.677 64.9372 264.828 65.4372 265.927 66.1143C267.037 66.7966 267.938 67.7549 268.636 68.9893C269.328 70.2289 269.677 71.6664 269.677 73.3018V89.5935H261.136V75.6143C261.136 74.3226 260.724 73.1976 259.907 72.2393C259.084 71.281 258.016 70.8018 256.698 70.8018C255.417 70.8018 254.25 71.3018 253.198 72.3018C252.157 73.2914 251.636 74.3955 251.636 75.6143V89.5935H243.115Z" fill="#3A5F56"/>
<path d="M180.027 165.307V155.849H183.714C184.339 155.849 184.865 155.99 185.298 156.266C185.74 156.547 186.074 156.922 186.298 157.391C186.532 157.865 186.652 158.391 186.652 158.974C186.652 159.573 186.532 160.109 186.298 160.578C186.074 161.052 185.74 161.427 185.298 161.703C184.865 161.969 184.339 162.099 183.714 162.099H181.069V165.307H180.027ZM181.069 161.161H183.714C184.157 161.161 184.511 161.068 184.777 160.87C185.053 160.661 185.256 160.391 185.381 160.057C185.516 159.724 185.589 159.365 185.589 158.974C185.589 158.599 185.516 158.245 185.381 157.911C185.256 157.578 185.048 157.307 184.756 157.099C184.475 156.891 184.131 156.786 183.714 156.786H181.069V161.161Z" fill="#3A5F56"/>
<path d="M195.756 165.307V155.849H196.839V160.099H201.735V155.849H202.798V165.307H201.735V161.036H196.839V165.307H195.756Z" fill="#3A5F56"/>
<path d="M215.961 165.495C215.153 165.495 214.45 165.286 213.857 164.87C213.258 164.443 212.794 163.859 212.461 163.12C212.127 162.385 211.961 161.536 211.961 160.578C211.961 159.62 212.127 158.776 212.461 158.036C212.794 157.286 213.258 156.703 213.857 156.286C214.45 155.859 215.153 155.641 215.961 155.641C216.752 155.641 217.445 155.859 218.044 156.286C218.653 156.703 219.117 157.286 219.44 158.036C219.773 158.776 219.94 159.62 219.94 160.578C219.94 161.536 219.773 162.385 219.44 163.12C219.117 163.859 218.653 164.443 218.044 164.87C217.445 165.286 216.752 165.495 215.961 165.495ZM215.961 164.557C216.528 164.557 217.028 164.391 217.461 164.057C217.903 163.714 218.252 163.24 218.502 162.641C218.752 162.047 218.877 161.359 218.877 160.578C218.877 159.786 218.752 159.094 218.502 158.495C218.252 157.901 217.903 157.432 217.461 157.099C217.028 156.755 216.528 156.578 215.961 156.578C215.388 156.578 214.883 156.755 214.44 157.099C213.992 157.432 213.648 157.901 213.398 158.495C213.159 159.094 213.044 159.786 213.044 160.578C213.044 161.359 213.159 162.047 213.398 162.641C213.648 163.24 213.992 163.714 214.44 164.057C214.883 164.391 215.388 164.557 215.961 164.557Z" fill="#3A5F56"/>
<path d="M231.541 165.307V156.745H228.416V155.849H235.77V156.745H232.624V165.307H231.541Z" fill="#3A5F56"/>
<path d="M248.067 165.495C247.26 165.495 246.557 165.286 245.963 164.87C245.364 164.443 244.9 163.859 244.567 163.12C244.234 162.385 244.067 161.536 244.067 160.578C244.067 159.62 244.234 158.776 244.567 158.036C244.9 157.286 245.364 156.703 245.963 156.286C246.557 155.859 247.26 155.641 248.067 155.641C248.859 155.641 249.551 155.859 250.15 156.286C250.76 156.703 251.223 157.286 251.546 158.036C251.88 158.776 252.046 159.62 252.046 160.578C252.046 161.536 251.88 162.385 251.546 163.12C251.223 163.859 250.76 164.443 250.15 164.87C249.551 165.286 248.859 165.495 248.067 165.495ZM248.067 164.557C248.635 164.557 249.135 164.391 249.567 164.057C250.01 163.714 250.359 163.24 250.609 162.641C250.859 162.047 250.984 161.359 250.984 160.578C250.984 159.786 250.859 159.094 250.609 158.495C250.359 157.901 250.01 157.432 249.567 157.099C249.135 156.755 248.635 156.578 248.067 156.578C247.494 156.578 246.989 156.755 246.546 157.099C246.098 157.432 245.755 157.901 245.505 158.495C245.265 159.094 245.15 159.786 245.15 160.578C245.15 161.359 245.265 162.047 245.505 162.641C245.755 163.24 246.098 163.714 246.546 164.057C246.989 164.391 247.494 164.557 248.067 164.557Z" fill="#3A5F56"/>
<path d="M265.106 165.516C264.257 165.516 263.512 165.307 262.876 164.891C262.251 164.464 261.762 163.88 261.418 163.141C261.069 162.391 260.897 161.547 260.897 160.599C260.897 159.974 260.981 159.37 261.147 158.786C261.314 158.193 261.569 157.656 261.918 157.182C262.262 156.714 262.699 156.339 263.231 156.057C263.757 155.781 264.382 155.641 265.106 155.641C266.007 155.641 266.777 155.87 267.418 156.328C268.053 156.776 268.501 157.401 268.751 158.203L267.814 158.516C267.59 157.922 267.257 157.453 266.814 157.12C266.366 156.776 265.798 156.599 265.106 156.599C264.533 156.599 264.048 156.719 263.647 156.953C263.257 157.193 262.939 157.51 262.689 157.911C262.439 158.302 262.257 158.734 262.147 159.203C262.033 159.661 261.981 160.13 261.981 160.599C261.981 161.073 262.033 161.547 262.147 162.016C262.257 162.474 262.428 162.901 262.668 163.286C262.918 163.677 263.241 163.99 263.647 164.224C264.048 164.448 264.533 164.557 265.106 164.557C265.741 164.557 266.319 164.411 266.835 164.12C267.345 163.828 267.71 163.401 267.918 162.828V161.203H264.897V160.286H268.835V163.016C268.626 163.63 268.324 164.12 267.939 164.495C267.564 164.859 267.132 165.12 266.647 165.286C266.158 165.438 265.647 165.516 265.106 165.516Z" fill="#3A5F56"/>
<path d="M278.236 165.307V155.849H282.132C282.783 155.849 283.325 155.99 283.757 156.266C284.184 156.531 284.512 156.885 284.736 157.328C284.955 157.76 285.07 158.234 285.07 158.745C285.07 159.219 284.965 159.677 284.757 160.12C284.559 160.552 284.257 160.911 283.84 161.203C283.434 161.484 282.924 161.635 282.299 161.661L285.09 165.245V165.307H283.82L280.986 161.661H279.299V165.307H278.236ZM279.299 160.724H282.257C282.658 160.714 282.986 160.609 283.236 160.411C283.486 160.219 283.674 159.974 283.799 159.682C283.924 159.38 283.986 159.068 283.986 158.745C283.986 158.411 283.913 158.099 283.778 157.807C283.653 157.505 283.45 157.255 283.174 157.057C282.908 156.865 282.559 156.766 282.132 156.766H279.299V160.724Z" fill="#3A5F56"/>
<path d="M293.227 165.307L297.102 155.766H298.122L301.997 165.307H300.831L299.852 162.828H295.372L294.393 165.307H293.227ZM295.768 161.891H299.456L298.393 159.203L297.602 156.932L296.831 159.203L295.768 161.891Z" fill="#3A5F56"/>
<path d="M310.586 165.307V155.849H314.273C314.898 155.849 315.424 155.99 315.856 156.266C316.299 156.547 316.633 156.922 316.856 157.391C317.091 157.865 317.211 158.391 317.211 158.974C317.211 159.573 317.091 160.109 316.856 160.578C316.633 161.052 316.299 161.427 315.856 161.703C315.424 161.969 314.898 162.099 314.273 162.099H311.627V165.307H310.586ZM311.627 161.161H314.273C314.716 161.161 315.07 161.068 315.336 160.87C315.612 160.661 315.815 160.391 315.94 160.057C316.075 159.724 316.148 159.365 316.148 158.974C316.148 158.599 316.075 158.245 315.94 157.911C315.815 157.578 315.606 157.307 315.315 157.099C315.034 156.891 314.69 156.786 314.273 156.786H311.627V161.161Z" fill="#3A5F56"/>
<path d="M326.315 165.307V155.849H327.398V160.099H332.294V155.849H333.356V165.307H332.294V161.036H327.398V165.307H326.315Z" fill="#3A5F56"/>
<path d="M345.52 165.307V161.557L342.02 155.932V155.849H343.29L345.02 158.745L346.04 160.599L347.082 158.745L348.832 155.849H350.082V155.932L346.582 161.557V165.307H345.52Z" fill="#3A5F56"/>
<path d="M180.297 122.322V138.718H170.985V97.8429H180.297V114.155H193.464V97.8429H202.777V138.718H193.464V122.322H180.297Z" fill="#3A5F56"/>
<path d="M211.115 135.697C208.292 133.187 206.886 129.963 206.886 126.03C206.886 122.103 208.349 118.874 211.282 116.343C214.224 113.817 217.855 112.551 222.178 112.551C226.438 112.551 230.032 113.832 232.948 116.385C235.876 118.926 237.344 122.15 237.344 126.051C237.344 129.942 235.912 133.15 233.053 135.676C230.204 138.207 226.579 139.468 222.178 139.468C217.62 139.468 213.933 138.213 211.115 135.697ZM217.907 121.718C216.766 122.843 216.198 124.28 216.198 126.03C216.198 127.78 216.74 129.213 217.823 130.322C218.917 131.437 220.355 131.989 222.136 131.989C223.855 131.989 225.266 131.426 226.365 130.301C227.474 129.176 228.032 127.754 228.032 126.03C228.032 124.28 227.459 122.843 226.323 121.718C225.183 120.593 223.787 120.03 222.136 120.03C220.454 120.03 219.042 120.593 217.907 121.718Z" fill="#3A5F56"/>
<path d="M241.452 138.718V96.1137H250.223V138.718H241.452Z" fill="#3A5F56"/>
<path d="M257.639 113.301V103.843H266.41V113.301H271.764V119.989H266.41V128.072C266.41 130.421 267.066 131.593 268.389 131.593C268.722 131.593 269.066 131.53 269.43 131.405C269.79 131.27 270.066 131.129 270.264 130.989L270.576 130.801L272.743 137.885C270.868 138.937 268.722 139.468 266.305 139.468C264.649 139.468 263.227 139.176 262.035 138.593C260.852 138.01 259.956 137.234 259.347 136.26C258.733 135.291 258.295 134.27 258.035 133.197C257.769 132.129 257.639 130.984 257.639 129.76V119.989H253.972V113.301H257.639Z" fill="#3A5F56"/>
</svg>
